<svg width="16" height="14" viewBox="0 0 16 14" fill="none" xmlns="http://www.w3.org/2000/svg">
<path d="M1.99955 10.0292L2.03843 3.14036H1.26074V11.9057C2.32944 11.6297 3.4019 11.4541 4.48189 11.4466C5.47909 11.4403 6.47629 11.5796 7.476 11.9182C6.8551 11.4152 6.1627 11.0452 5.4239 10.8044C4.49318 10.5008 3.4872 10.4005 2.45613 10.4883C2.22282 10.5071 2.01962 10.334 1.99955 10.1019C1.99704 10.0769 1.99704 10.053 1.99955 10.0292ZM13.4115 2.78036C13.409 2.76029 13.4065 2.73897 13.4065 2.71639C13.4065 2.69507 13.4078 2.67374 13.4115 2.65242V1.25759C12.4332 1.16477 11.4247 1.27265 10.5441 1.6063C9.72127 1.91863 9.01131 2.43166 8.54971 3.1667V11.1117C9.2672 10.6325 10.001 10.2387 10.7548 9.97024C11.6141 9.66418 12.4971 9.51868 13.4115 9.59143V2.78036ZM14.2582 2.29368H15.4047C15.638 2.29368 15.8274 2.48308 15.8274 2.71639V12.4576C15.8274 12.6909 15.638 12.8803 15.4047 12.8803C15.357 12.8803 15.3106 12.8728 15.268 12.8577C14.0889 12.5203 12.9173 12.2958 11.7571 12.2883C10.6256 12.2807 9.49549 12.4802 8.36031 12.9807C8.29006 13.0271 8.20602 13.0522 8.11947 13.0509C8.03418 13.0522 7.95014 13.0271 7.87864 12.9807C6.74472 12.4789 5.6133 12.2807 4.48189 12.2883C3.32162 12.2958 2.15132 12.5203 0.97099 12.8577C0.928342 12.8728 0.881931 12.8803 0.834266 12.8803C0.603468 12.8816 0.414062 12.6922 0.414062 12.4589V2.71639C0.414062 2.48308 0.603468 2.29368 0.836775 2.29368H2.0422L2.04972 0.881291C2.05098 0.678088 2.19397 0.510007 2.38589 0.469868C3.49849 0.237815 4.85066 0.295514 6.03602 0.749586C6.8551 1.06317 7.59892 1.56365 8.14205 2.28615C8.6902 1.61257 9.42273 1.1284 10.2468 0.816066C11.3732 0.388336 12.6727 0.28548 13.8957 0.46485C14.1064 0.494955 14.257 0.676834 14.257 0.882546V2.29368H14.2582ZM8.95988 11.8543C9.89437 11.5607 10.8276 11.4403 11.7608 11.4453C12.8408 11.4516 13.9133 11.6285 14.982 11.9044V3.14036H14.2582V10.0668C14.2582 10.3001 14.0688 10.4895 13.8355 10.4895C13.8016 10.4895 13.769 10.4858 13.7377 10.4782C12.812 10.3327 11.9151 10.4532 11.0396 10.7655C10.3346 11.0176 9.64224 11.3939 8.95988 11.8543ZM7.70429 11.0302V3.15416C7.26151 2.3727 6.54528 1.84964 5.73623 1.53982C4.81931 1.1886 3.78949 1.10958 2.89138 1.23752L2.84372 9.61777C3.82336 9.58265 4.78168 9.70683 5.68355 10.0016C6.40103 10.2349 7.08088 10.5773 7.70429 11.0302Z" fill="black"/>
</svg>
