<svg width="16" height="15" viewBox="0 0 16 15" fill="none" xmlns="http://www.w3.org/2000/svg">
<path d="M3.62119 7.0075C4.06359 7.80432 4.57168 8.56892 5.23466 9.26784C5.89641 9.97048 6.72173 10.6087 7.78994 11.1539C7.86925 11.1924 7.94484 11.1924 8.01052 11.1663C8.11214 11.1279 8.21623 11.0436 8.31785 10.942C8.39716 10.8627 8.49506 10.7363 8.59791 10.5988C9.0081 10.0585 9.51742 9.38805 10.2349 9.72264C10.251 9.73007 10.2634 9.73875 10.2783 9.74618L12.6737 11.123C12.6812 11.1267 12.6898 11.1354 12.6973 11.1391C13.0133 11.3559 13.1434 11.6918 13.1471 12.071C13.1471 12.4576 13.0046 12.8926 12.7964 13.2581C12.5213 13.7427 12.1136 14.0636 11.6452 14.2755C11.199 14.4813 10.7021 14.5915 10.225 14.6622C9.47528 14.7725 8.77388 14.7018 8.05637 14.4813C7.35373 14.2644 6.64738 13.905 5.87534 13.4279L5.81834 13.392C5.46392 13.1714 5.081 12.9335 4.70551 12.6546C3.32997 11.6162 1.92965 10.1179 1.01758 8.46854C0.251744 7.08309 -0.165875 5.58859 0.0621426 4.16348C0.188543 3.38277 0.523134 2.6727 1.10805 2.20303C1.61737 1.79285 2.30266 1.56731 3.19118 1.64662C3.2928 1.65405 3.3845 1.71354 3.43159 1.80028L4.96699 4.39522C5.19129 4.68643 5.21979 4.97517 5.09711 5.26391C4.99549 5.5006 4.78978 5.71871 4.50972 5.92194C4.42669 5.99257 4.32879 6.06445 4.22593 6.1388C3.88267 6.38789 3.49231 6.67539 3.62615 7.01493L3.62119 7.0075ZM9.08989 0.936543C9.02668 0.931586 8.9672 0.914237 8.91392 0.886974C8.85815 0.858472 8.80982 0.820056 8.77017 0.774205C8.73051 0.727114 8.69953 0.673828 8.6797 0.614345C8.66235 0.557341 8.65492 0.496619 8.65987 0.433418L8.66111 0.424744C8.66607 0.364022 8.68342 0.307018 8.70944 0.256209L8.7144 0.247535C8.74166 0.195488 8.77884 0.149636 8.82221 0.113699C8.86806 0.0740436 8.92259 0.043063 8.98207 0.0232354C9.03784 0.00464709 9.09732 -0.00278825 9.15804 0.000929418L9.17043 0.00216864C9.59549 0.0356277 10.0057 0.100067 10.3997 0.194248C10.7975 0.289668 11.1767 0.417309 11.5349 0.572211C11.8955 0.729593 12.235 0.916715 12.551 1.13234C12.8658 1.34797 13.1595 1.59209 13.4259 1.86348C13.6899 2.13239 13.9291 2.42857 14.141 2.74953C14.3504 3.06801 14.5326 3.41127 14.6862 3.7756C14.8349 4.1325 14.9564 4.5117 15.0481 4.91321C15.1373 5.30604 15.198 5.71871 15.2278 6.14996L15.229 6.17102V6.19333C15.229 6.25033 15.2191 6.3061 15.2005 6.35815C15.1807 6.41391 15.1509 6.46348 15.1125 6.50685C15.0741 6.55023 15.0282 6.58616 14.9762 6.61343C14.9279 6.63945 14.8721 6.65556 14.8139 6.66299L14.7891 6.66547H14.7655C14.7073 6.66671 14.6515 6.6568 14.5995 6.63697C14.5449 6.61714 14.4941 6.5874 14.4508 6.54899C14.4049 6.50933 14.3665 6.45976 14.3392 6.404C14.3132 6.35071 14.2959 6.28999 14.2921 6.22803C14.2661 5.84511 14.2141 5.48078 14.136 5.13751C14.0579 4.78681 13.9526 4.45594 13.8237 4.14489C13.6948 3.83261 13.5399 3.54015 13.3627 3.27C13.183 2.99613 12.981 2.74581 12.758 2.51779C12.5324 2.28854 12.2858 2.08282 12.0182 1.90066C11.7493 1.71725 11.4593 1.55863 11.1495 1.4248L11.1445 1.42232C10.8372 1.28972 10.5113 1.18067 10.168 1.09888C9.82598 1.02081 9.46661 0.965045 9.08989 0.936543ZM8.05885 5.35561C7.99565 5.34942 7.93617 5.32959 7.88412 5.30233C7.82959 5.27259 7.78127 5.23293 7.74409 5.18584C7.70815 5.14123 7.67965 5.08918 7.66106 5.03342C7.64371 4.98137 7.63628 4.9256 7.63875 4.8686C7.63999 4.85249 7.63999 4.8401 7.64247 4.82523C7.65115 4.76574 7.67097 4.70998 7.69824 4.66165C7.72674 4.61084 7.76516 4.56623 7.80977 4.53029C7.85438 4.49435 7.90643 4.46585 7.96219 4.44726C8.01424 4.43115 8.07 4.42248 8.12825 4.42496L8.17162 4.42867C8.35627 4.4485 8.53347 4.48072 8.70449 4.52409C8.87798 4.56871 9.04279 4.62571 9.1977 4.69263L9.20265 4.69511C9.36004 4.7645 9.5075 4.84505 9.64506 4.938C9.78385 5.03218 9.91273 5.13751 10.0317 5.25648C10.1494 5.3742 10.256 5.50184 10.3502 5.64063C10.4444 5.77819 10.5261 5.92566 10.5968 6.08428C10.6649 6.23918 10.7219 6.404 10.7666 6.57749C10.8099 6.74726 10.8409 6.92819 10.8607 7.11903C10.8669 7.18223 10.8607 7.24419 10.8446 7.30119L10.8434 7.30615C10.826 7.36316 10.7963 7.41644 10.7604 7.46229L10.7591 7.46477C10.7207 7.51186 10.6736 7.55028 10.6191 7.58002C10.567 7.60852 10.5076 7.62711 10.4444 7.63331H10.4382C10.3774 7.63826 10.318 7.63207 10.2622 7.61596C10.2027 7.59861 10.1482 7.56887 10.1011 7.53045H10.0999C10.0528 7.49203 10.0131 7.44494 9.98336 7.38918C9.95486 7.33713 9.93627 7.27765 9.93008 7.21569V7.21073C9.91645 7.07566 9.89414 6.94678 9.86316 6.82409C9.83218 6.69893 9.79252 6.58245 9.74543 6.47463C9.69834 6.36682 9.64382 6.26644 9.58186 6.17474C9.51866 6.0818 9.44926 5.99753 9.37243 5.9207C9.2956 5.84387 9.21009 5.77447 9.11715 5.71251C9.02421 5.65055 8.92259 5.59602 8.8123 5.54769L8.8061 5.54522C8.69829 5.49812 8.5818 5.45971 8.45912 5.42873C8.33024 5.39279 8.19764 5.37048 8.05885 5.35561ZM8.55454 3.22167H8.54215L8.52604 3.21919C8.4678 3.213 8.41327 3.19565 8.36494 3.17086C8.31289 3.1436 8.26704 3.10766 8.22863 3.06553C8.18897 3.02092 8.15799 2.97011 8.13816 2.9131C8.11957 2.85982 8.10966 2.80281 8.1109 2.74209V2.72102L8.11338 2.7012C8.11957 2.64419 8.13692 2.58967 8.16171 2.54134C8.18897 2.48929 8.22491 2.4422 8.26704 2.40502C8.31289 2.36413 8.36618 2.33315 8.42566 2.31208C8.48267 2.29225 8.54339 2.28358 8.60659 2.2873C8.93622 2.30712 9.24974 2.34926 9.54592 2.41246C9.84333 2.47566 10.1246 2.56116 10.3861 2.66774C10.6501 2.77555 10.8967 2.90567 11.1247 3.05685C11.3502 3.2068 11.5584 3.37905 11.7455 3.57361C11.9314 3.76569 12.0975 3.97884 12.2412 4.21181C12.3837 4.44231 12.5064 4.69263 12.6056 4.96154C12.7022 5.22426 12.7791 5.5068 12.8336 5.80917C12.8869 6.10658 12.9191 6.42011 12.929 6.75346L12.9302 6.77081C12.9302 6.83029 12.9191 6.88853 12.8968 6.94182C12.8745 6.99758 12.8423 7.04715 12.8026 7.09053C12.7617 7.13514 12.7109 7.17108 12.6539 7.19586C12.6006 7.22065 12.5399 7.23428 12.4767 7.23675H12.4556C12.3961 7.23552 12.3404 7.22436 12.2883 7.2033C12.2326 7.18099 12.183 7.14877 12.1409 7.10911C12.0962 7.06698 12.0603 7.01741 12.0343 6.96041C12.0095 6.90588 11.9959 6.8464 11.9934 6.78196C11.986 6.50437 11.9587 6.2429 11.9153 5.99629C11.8719 5.74721 11.81 5.51547 11.7331 5.30233C11.6563 5.08918 11.5621 4.89338 11.4531 4.7137C11.3428 4.53277 11.2164 4.37043 11.0751 4.22296C10.9314 4.0755 10.7728 3.9429 10.598 3.82765C10.422 3.71116 10.2275 3.61079 10.0193 3.52652L10.0143 3.52404C9.80368 3.44101 9.57814 3.37286 9.33649 3.32205C9.0936 3.27124 8.8346 3.23654 8.56198 3.22043L8.55454 3.22167Z" fill="black"/>
</svg>
