<svg width="16" height="13" viewBox="0 0 16 13" fill="none" xmlns="http://www.w3.org/2000/svg">
<path d="M1.99955 9.97817L2.03843 3.08933H1.26074V11.8547C2.32944 11.5787 3.4019 11.4031 4.48189 11.3956C5.47909 11.3893 6.47629 11.5285 7.476 11.8672C6.8551 11.3642 6.1627 10.9942 5.4239 10.7533C4.49318 10.4498 3.4872 10.3495 2.45613 10.4373C2.22282 10.4561 2.01962 10.283 1.99955 10.0509C1.99704 10.0258 1.99704 10.002 1.99955 9.97817ZM13.4115 2.72934C13.409 2.70927 13.4065 2.68794 13.4065 2.66537C13.4065 2.64404 13.4078 2.62272 13.4115 2.60139V1.20657C12.4332 1.11375 11.4247 1.22162 10.5441 1.55527C9.72127 1.86761 9.01131 2.38063 8.54971 3.11567V11.0607C9.2672 10.5815 10.001 10.1876 10.7548 9.91921C11.6141 9.61316 12.4971 9.46765 13.4115 9.5404V2.72934ZM14.2582 2.24265H15.4047C15.638 2.24265 15.8274 2.43206 15.8274 2.66537V12.4066C15.8274 12.6399 15.638 12.8293 15.4047 12.8293C15.357 12.8293 15.3106 12.8218 15.268 12.8067C14.0889 12.4693 12.9173 12.2448 11.7571 12.2372C10.6256 12.2297 9.49549 12.4291 8.36031 12.9296C8.29006 12.976 8.20602 13.0011 8.11947 12.9999C8.03418 13.0011 7.95014 12.976 7.87864 12.9296C6.74472 12.4279 5.6133 12.2297 4.48189 12.2372C3.32162 12.2448 2.15132 12.4693 0.97099 12.8067C0.928342 12.8218 0.881931 12.8293 0.834266 12.8293C0.603468 12.8305 0.414062 12.6411 0.414062 12.4078V2.66537C0.414062 2.43206 0.603468 2.24265 0.836775 2.24265H2.0422L2.04972 0.830266C2.05098 0.627063 2.19397 0.458981 2.38589 0.418842C3.49849 0.186789 4.85066 0.244489 6.03602 0.69856C6.8551 1.01215 7.59892 1.51263 8.14205 2.23513C8.6902 1.56155 9.42273 1.07737 10.2468 0.76504C11.3732 0.33731 12.6727 0.234454 13.8957 0.413825C14.1064 0.443929 14.257 0.625809 14.257 0.83152V2.24265H14.2582ZM8.95988 11.8032C9.89437 11.5097 10.8276 11.3893 11.7608 11.3943C12.8408 11.4006 13.9133 11.5775 14.982 11.8534V3.08933H14.2582V10.0158C14.2582 10.2491 14.0688 10.4385 13.8355 10.4385C13.8016 10.4385 13.769 10.4347 13.7377 10.4272C12.812 10.2817 11.9151 10.4021 11.0396 10.7145C10.3346 10.9666 9.64224 11.3429 8.95988 11.8032ZM7.70429 10.9791V3.10313C7.26151 2.32168 6.54528 1.79862 5.73623 1.48879C4.81931 1.13758 3.78949 1.05856 2.89138 1.1865L2.84372 9.56674C3.82336 9.53162 4.78168 9.6558 5.68355 9.95057C6.40103 10.1839 7.08088 10.5263 7.70429 10.9791Z" fill="black"/>
</svg>
