<svg width="10" height="14" viewBox="0 0 10 14" fill="none" xmlns="http://www.w3.org/2000/svg">
<path fill-rule="evenodd" clip-rule="evenodd" d="M5.32267 13.9388C5.27403 13.9765 5.21564 13.9978 5.15524 13.9998C5.09484 14.0019 5.03527 13.9846 4.98444 13.9502C3.87173 13.2117 2.88337 12.2842 2.05966 11.2055C0.99186 9.79846 0.325165 8.24098 0.0899252 6.74047C-0.144231 5.21717 0.0747484 3.75312 0.795646 2.56251C1.0889 2.07852 1.45714 1.64952 1.88512 1.29329C2.90197 0.44106 4.06408 -0.00897896 5.22076 0.000135759C6.33626 0.00925048 7.43549 0.446757 8.38621 1.35709C8.71546 1.67319 8.99985 2.03731 9.23069 2.43832C10.0058 3.77933 10.1727 5.49175 9.83234 7.22355C9.54662 8.60284 9.00021 9.90777 8.22555 11.0609C7.45088 12.2141 6.46373 13.1919 5.32267 13.9365V13.9388ZM4.99745 2.70721C5.49086 2.70585 5.97356 2.85839 6.38444 3.14551C6.79532 3.43263 7.11591 3.84142 7.30562 4.32013C7.49533 4.79884 7.54563 5.32594 7.45016 5.83472C7.35469 6.34349 7.11774 6.81105 6.7693 7.17822C6.42087 7.54538 5.97661 7.79564 5.49277 7.89731C5.00894 7.99897 4.50728 7.94748 4.05131 7.74934C3.59533 7.55121 3.20554 7.21534 2.93128 6.78426C2.65702 6.35317 2.51062 5.84626 2.51062 5.32769C2.51062 4.63328 2.77287 3.96727 3.23975 3.47594C3.70664 2.9846 4.33999 2.70811 5.0007 2.70721H4.99745Z" fill="black"/>
</svg>
