<svg width="17" height="14" viewBox="0 0 17 14" fill="none" xmlns="http://www.w3.org/2000/svg">
<path fill-rule="evenodd" clip-rule="evenodd" d="M7.09684 0H9.90316C10.7761 0 11.4906 0.691045 11.4906 1.53423V2.75327H15.5477C15.9468 2.75327 16.3107 2.9115 16.5737 3.16571C16.8363 3.4196 17 3.77106 17 4.15718V12.5961C17 12.9822 16.8363 13.334 16.5737 13.5879C16.3107 13.8421 15.9468 14 15.5477 14H1.4523C1.05254 14 0.688965 13.8421 0.426328 13.5879C0.163691 13.334 0 12.9822 0 12.5961V4.15718C0 3.77106 0.163691 3.4196 0.426328 3.16571C0.688965 2.9115 1.05254 2.75327 1.4523 2.75327H5.50939V1.53423C5.50939 0.690403 6.22393 0 7.09684 0ZM12.6763 13.4666V3.28704H4.32371V13.4666H12.6763V13.4666ZM13.5963 3.28704V13.4666H15.5477C15.7947 13.4666 16.0202 13.3683 16.1832 13.2107C16.3462 13.0531 16.4478 12.8352 16.4478 12.5961V4.15718C16.4478 3.91838 16.3462 3.70044 16.1832 3.54285C16.0202 3.38525 15.7947 3.28704 15.5477 3.28704H13.5963V3.28704ZM3.40365 13.4666V3.28704H1.4523C1.20494 3.28704 0.979492 3.38525 0.816797 3.54285C0.65377 3.70044 0.551836 3.91838 0.551836 4.15718V12.5961C0.551836 12.8352 0.65377 13.0531 0.816797 13.2107C0.979492 13.3683 1.20494 13.4666 1.4523 13.4666H3.40365ZM10.4792 2.75327V1.5307C10.4792 1.23509 10.2282 0.993076 9.92309 0.993076H7.07691C6.77145 0.993076 6.52076 1.23573 6.52076 1.5307V2.75327H10.4792V2.75327Z" fill="black"/>
</svg>
