<svg width="15" height="15" viewBox="0 0 15 15" fill="none" xmlns="http://www.w3.org/2000/svg">
<path fill-rule="evenodd" clip-rule="evenodd" d="M13.0324 10.5649C13.0563 10.5228 13.0801 10.4769 13.1058 10.4311L13.1076 10.4293C13.1369 10.3743 13.1644 10.3193 13.1919 10.2661C13.2231 10.2056 13.2524 10.1433 13.2818 10.0791C13.3129 10.0131 13.3404 9.95078 13.3679 9.88845L13.3789 9.86829C13.4193 9.77113 13.4578 9.6758 13.4926 9.57864C13.5274 9.48148 13.5622 9.38248 13.5934 9.28165V9.27982C13.6246 9.18083 13.6521 9.08 13.6777 8.97734C13.7034 8.87468 13.7272 8.77018 13.7474 8.66569C13.7639 8.58136 13.7786 8.5007 13.7914 8.42003C13.8042 8.33937 13.8152 8.25688 13.8262 8.17255V8.17071C13.8354 8.09739 13.8427 8.02222 13.8501 7.94523C13.8556 7.88473 13.8592 7.82423 13.8629 7.76557H12.0608C12.0498 8.00022 12.0223 8.23488 11.9838 8.46586C11.9417 8.71335 11.883 8.96084 11.8078 9.20466C11.7345 9.44481 11.6465 9.68497 11.5457 9.92329C11.454 10.1378 11.3495 10.3523 11.2322 10.5667L13.0324 10.5649ZM12.4861 11.3972H10.7189C10.5704 11.6099 10.4091 11.8225 10.2386 12.0315C10.0608 12.2478 9.87012 12.466 9.66663 12.6823C9.47964 12.8821 9.27982 13.0819 9.06716 13.2818C8.89484 13.4449 8.71518 13.6081 8.53003 13.7694L8.67852 13.7419C8.78118 13.7217 8.88384 13.6979 8.98834 13.6704C9.09283 13.6447 9.19549 13.6154 9.29632 13.5842C9.39715 13.5531 9.49797 13.5183 9.5988 13.4816C9.69963 13.4449 9.79862 13.4046 9.89578 13.3624C9.99661 13.3184 10.0956 13.2744 10.1909 13.2286C10.2863 13.1828 10.3816 13.1333 10.4769 13.0819C10.5704 13.0306 10.6639 12.9793 10.7519 12.9243C10.8417 12.8693 10.9316 12.8143 11.0159 12.7556C11.1021 12.697 11.1882 12.6383 11.2707 12.576C11.3532 12.5136 11.4357 12.4513 11.5145 12.3853C11.5934 12.3212 11.6722 12.2533 11.7492 12.1818C11.8262 12.1122 11.9013 12.0407 11.9747 11.9655C12.0315 11.9068 12.0883 11.85 12.1433 11.7913C12.1983 11.7327 12.2515 11.674 12.3028 11.6135C12.345 11.5659 12.3853 11.5164 12.4256 11.4669L12.4861 11.3972ZM6.17799 13.7694C5.991 13.6081 5.81134 13.4449 5.63902 13.2818C5.4282 13.0819 5.22838 12.8821 5.04139 12.6823C4.8379 12.466 4.64724 12.2497 4.46942 12.0315C4.2971 11.8207 4.1376 11.6099 3.98911 11.3972H2.22554L2.28421 11.4705C2.32454 11.52 2.3667 11.5695 2.40703 11.6172C2.51153 11.7364 2.62152 11.8537 2.73518 11.9673L2.73702 11.971C2.81034 12.0443 2.88551 12.1158 2.9625 12.1855C3.0395 12.2552 3.11833 12.323 3.19716 12.3871C3.27599 12.4531 3.35848 12.5155 3.44098 12.5778C3.5253 12.6401 3.60963 12.6988 3.6958 12.7575C3.78012 12.8143 3.86995 12.8711 3.96161 12.9261C4.05144 12.9811 4.1431 13.0324 4.23293 13.0819C4.32826 13.1333 4.42359 13.1828 4.52075 13.2286C4.61608 13.2744 4.71507 13.3184 4.8159 13.3624C4.82507 13.3661 4.82873 13.3698 4.8379 13.3753C4.93506 13.4156 5.03039 13.4523 5.12755 13.4889C5.22471 13.5238 5.32371 13.5586 5.42453 13.5897H5.42637C5.52536 13.6209 5.62619 13.6484 5.72885 13.6741C5.83151 13.6997 5.936 13.7236 6.0405 13.7437L6.17799 13.7694ZM1.67007 10.5686H3.47031C3.35298 10.3523 3.24849 10.1378 3.15499 9.92145C3.05233 9.6813 2.96434 9.44114 2.89284 9.20099C2.81951 8.95534 2.76085 8.70969 2.71868 8.4622C2.67835 8.23121 2.65269 8.00022 2.64169 7.7674H0.841453C0.84512 7.82607 0.85062 7.88656 0.854286 7.94706C0.861619 8.02406 0.868952 8.10105 0.878118 8.17438C0.889117 8.26054 0.900117 8.34304 0.912949 8.42187C0.925782 8.5007 0.940448 8.58319 0.956947 8.66752L0.95878 8.67485C0.978946 8.77751 1.00278 8.88018 1.02844 8.98467C1.05411 9.08916 1.08344 9.19183 1.1146 9.29265C1.14577 9.39348 1.1806 9.49431 1.21727 9.59514C1.25393 9.69596 1.29426 9.79496 1.33643 9.89212L1.33826 9.89579C1.36392 9.95628 1.39142 10.0186 1.42075 10.0809L1.42259 10.0828C1.45009 10.1414 1.47942 10.2019 1.50875 10.2643C1.53808 10.3229 1.56558 10.3779 1.59491 10.4329C1.62058 10.4769 1.64441 10.5228 1.67007 10.5686ZM0.841453 6.93878H2.66002C2.68018 6.70963 2.71502 6.48048 2.76268 6.24949C2.81401 6.00384 2.88001 5.75818 2.96067 5.51253L2.9625 5.50886C3.04133 5.26871 3.13666 5.02856 3.24482 4.79024C3.34381 4.57208 3.45381 4.35393 3.57664 4.13577H1.67007C1.64441 4.1816 1.61874 4.22927 1.59491 4.27326C1.56558 4.32643 1.53808 4.38326 1.50875 4.44192L1.50692 4.44376C1.47575 4.50425 1.44825 4.56475 1.41892 4.62524C1.38959 4.68757 1.36209 4.7499 1.33643 4.81223L1.33093 4.82323L1.32359 4.83423C1.28326 4.92956 1.2466 5.02672 1.20993 5.12388C1.1751 5.22288 1.14027 5.32187 1.10911 5.42087C1.07794 5.52169 1.04861 5.62252 1.02294 5.72702C0.997278 5.82968 0.973446 5.93417 0.95328 6.03867C0.936781 6.12299 0.922116 6.20549 0.909283 6.28432C0.89645 6.36498 0.883618 6.44748 0.874452 6.53181C0.865285 6.60697 0.857952 6.68213 0.85062 6.75913C0.848786 6.81962 0.843287 6.88012 0.841453 6.93878ZM2.21821 3.30898H4.09727C4.24576 3.09816 4.40342 2.88917 4.57208 2.67835C4.74624 2.46203 4.93323 2.24571 5.12938 2.02755C5.31271 1.8259 5.50886 1.62424 5.71418 1.42075C5.88284 1.25393 6.06066 1.08527 6.24399 0.91845L6.16699 0.931282L6.035 0.956947C5.93234 0.977113 5.82784 1.00094 5.72335 1.02844C5.61886 1.05411 5.51619 1.08344 5.41353 1.11461C5.31271 1.14577 5.21188 1.1806 5.11105 1.21727C5.01022 1.25393 4.91123 1.29426 4.81407 1.33643C4.71141 1.38042 4.61424 1.42625 4.51892 1.47209C4.42359 1.51792 4.32826 1.56741 4.23477 1.61691C4.13944 1.66824 4.04778 1.7214 3.95795 1.77457C3.86812 1.82773 3.78012 1.88456 3.6958 1.94139C3.6078 2.00006 3.52347 2.06055 3.44098 2.12105C3.35665 2.18338 3.27599 2.24571 3.19716 2.31171C3.11833 2.37587 3.0395 2.4437 2.9625 2.51519C2.88734 2.58486 2.81218 2.65635 2.73702 2.73152L2.73335 2.73335C2.67652 2.79018 2.62152 2.84701 2.56836 2.90384C2.51336 2.9625 2.4602 3.02117 2.40887 3.08166C2.3667 3.12933 2.32454 3.17882 2.28421 3.23016L2.21821 3.30898ZM8.46586 0.925783C8.64919 1.09261 8.82518 1.25943 8.99384 1.42625C9.19916 1.62791 9.39165 1.82957 9.57497 2.02939C9.77296 2.24571 9.95811 2.46203 10.1323 2.68019C10.3009 2.89101 10.4586 3.1 10.6052 3.31082H12.4806L12.422 3.23565C12.3816 3.18616 12.3413 3.13849 12.2992 3.089C12.2478 3.03033 12.1947 2.96984 12.1397 2.91117C12.0865 2.85434 12.0315 2.79751 11.971 2.73702C11.8958 2.66185 11.8207 2.58852 11.7437 2.52069C11.6667 2.4492 11.5879 2.3832 11.509 2.31904C11.4302 2.25304 11.3477 2.19071 11.2652 2.12838C11.1809 2.06605 11.0966 2.00739 11.0104 1.94873C10.9242 1.8919 10.8362 1.83507 10.7464 1.78007C10.6566 1.72507 10.5649 1.67374 10.4714 1.62241C10.3779 1.57108 10.2826 1.52342 10.1873 1.47759C10.0919 1.43175 9.99295 1.38776 9.89029 1.34376C9.88112 1.34009 9.87745 1.33643 9.86829 1.33093C9.77113 1.2906 9.67396 1.2521 9.57864 1.21727C9.48147 1.18244 9.38248 1.1476 9.28165 1.11644H9.27982C9.18082 1.08527 9.07816 1.05778 8.97734 1.03028C8.87468 1.00461 8.77201 0.980779 8.66569 0.960614L8.53369 0.934949L8.46586 0.925783ZM13.0324 4.13577H11.1295C11.2524 4.35393 11.3624 4.57208 11.4595 4.7884C11.5677 5.02856 11.663 5.27054 11.7418 5.5107C11.8225 5.75635 11.8903 6.002 11.9398 6.24765C11.9875 6.47864 12.0223 6.7078 12.0425 6.93695H13.8592C13.8556 6.87829 13.8501 6.81779 13.8464 6.75729C13.8391 6.6803 13.8317 6.60514 13.8226 6.52997C13.8116 6.44381 13.8006 6.36132 13.7877 6.28249C13.7749 6.20366 13.7602 6.12116 13.7437 6.03683L13.7419 6.0295C13.7217 5.92684 13.6979 5.82418 13.6704 5.71968C13.6447 5.61519 13.6154 5.51253 13.5842 5.4117C13.5531 5.31087 13.5183 5.21005 13.4816 5.10922C13.4449 5.00839 13.4046 4.91123 13.3643 4.81407L13.3624 4.80857C13.3368 4.74807 13.3093 4.68574 13.2799 4.62341L13.2781 4.62158C13.2524 4.56475 13.2231 4.50425 13.1919 4.44009C13.1626 4.37959 13.1333 4.32459 13.1058 4.27326C13.0856 4.2311 13.0599 4.18344 13.0324 4.13577ZM5.87734 0.146659C5.99833 0.122827 6.11933 0.100828 6.23849 0.0824956C6.35765 0.0641633 6.47864 0.0494974 6.6033 0.0366648C6.72796 0.0238322 6.85262 0.0146664 6.97728 0.00916672C7.10377 0.00366702 7.23027 0 7.35493 0C7.60608 0 7.8554 0.0128328 8.10288 0.0366648C8.22754 0.0494974 8.34854 0.0641633 8.46953 0.0824956C8.58869 0.100828 8.70968 0.120994 8.83251 0.146659C8.94984 0.168658 9.06716 0.196156 9.18266 0.225488C9.29815 0.25482 9.41364 0.287818 9.52914 0.322649C9.6428 0.357481 9.75646 0.395978 9.86829 0.436309C9.97828 0.47664 10.0901 0.520638 10.2001 0.568302C10.2129 0.571969 10.2203 0.575635 10.2331 0.582968C10.3376 0.628799 10.4421 0.676463 10.5484 0.727793C10.6566 0.779124 10.7611 0.834121 10.8619 0.889118L10.8637 0.890951C10.9682 0.947781 11.0709 1.00644 11.1717 1.06694L11.1735 1.06877C11.2762 1.1311 11.377 1.19343 11.4742 1.25943C11.5695 1.32359 11.6649 1.38959 11.7583 1.45742C11.8518 1.52708 11.9435 1.59858 12.0352 1.67191C12.1268 1.74707 12.2148 1.82407 12.3028 1.90289C12.3926 1.98356 12.4788 2.06605 12.5613 2.14855L12.565 2.15221C12.6475 2.23288 12.7281 2.31721 12.8051 2.40337C12.884 2.48953 12.9591 2.57752 13.0343 2.66919C13.1076 2.75901 13.1791 2.85068 13.2488 2.946C13.3184 3.04133 13.3863 3.13849 13.4523 3.23565L13.4541 3.23749C13.5201 3.33648 13.5824 3.43548 13.6429 3.53264C13.7034 3.63347 13.7639 3.73613 13.8207 3.84245C13.8776 3.94512 13.9307 4.05144 13.9821 4.1596C14.0352 4.2696 14.0847 4.37776 14.1324 4.48775C14.18 4.59958 14.2259 4.71141 14.268 4.8269C14.3102 4.94056 14.3487 5.05605 14.3854 5.17338C14.422 5.29071 14.455 5.4062 14.4844 5.52353C14.5137 5.63902 14.5412 5.75818 14.565 5.87917C14.5889 6.00017 14.6109 6.11933 14.6292 6.24032C14.6475 6.35948 14.6622 6.48231 14.675 6.60697C14.6879 6.73163 14.697 6.85629 14.7025 6.98095C14.708 7.10744 14.7117 7.23393 14.7117 7.35859C14.7117 7.48325 14.708 7.60791 14.7025 7.73441C14.697 7.85907 14.6879 7.98189 14.675 8.10655C14.6622 8.23121 14.6475 8.35404 14.6292 8.4732V8.47503C14.6109 8.59236 14.5907 8.71335 14.565 8.83434C14.543 8.95167 14.5155 9.069 14.4862 9.18449C14.4569 9.29999 14.4239 9.41548 14.389 9.53097C14.3542 9.64463 14.3157 9.75829 14.2754 9.87012C14.235 9.98012 14.191 10.0919 14.1434 10.2001C14.1397 10.2148 14.1342 10.2221 14.1269 10.2349C14.0811 10.3431 14.0316 10.4494 13.9802 10.5557C13.9289 10.6621 13.8739 10.7666 13.8171 10.8711C13.7584 10.9774 13.6997 11.0801 13.6411 11.179C13.5806 11.2799 13.5183 11.3789 13.4523 11.476C13.3881 11.5714 13.3221 11.6667 13.2524 11.762C13.1828 11.8555 13.1113 11.9472 13.0379 12.037L13.0361 12.0388C12.9609 12.1305 12.884 12.2203 12.8051 12.3065L12.8033 12.3083C12.7226 12.3963 12.642 12.4806 12.5613 12.5631L12.5558 12.5686C12.4733 12.6511 12.3908 12.7318 12.3065 12.8088C12.2203 12.8858 12.1323 12.9628 12.0425 13.0379C11.9527 13.1113 11.861 13.1828 11.7657 13.2543C11.6704 13.3239 11.575 13.3918 11.4779 13.4559C11.3807 13.5219 11.2817 13.5861 11.1809 13.6466C11.0801 13.7071 10.9756 13.7676 10.8692 13.8244C10.7647 13.8812 10.6584 13.9344 10.5521 13.9876C10.4439 14.0407 10.3339 14.0902 10.2258 14.1361C10.1139 14.1837 10.0003 14.2295 9.88662 14.2717C9.77296 14.3139 9.65747 14.3524 9.54014 14.389C9.42464 14.4257 9.30915 14.4569 9.19182 14.4862C9.07633 14.5155 8.95717 14.543 8.83434 14.5669C8.71335 14.5907 8.59419 14.6127 8.4732 14.631C8.35404 14.6494 8.23121 14.664 8.10655 14.6769C7.85723 14.7007 7.60791 14.7135 7.35493 14.7135C7.23027 14.7135 7.10561 14.7099 6.97911 14.7044C6.85445 14.6989 6.73163 14.6897 6.60697 14.6769C6.48231 14.664 6.35948 14.6494 6.24032 14.631C6.12116 14.6127 6.00017 14.5925 5.87917 14.5669C5.76185 14.5449 5.64452 14.5174 5.52903 14.488C5.41353 14.4587 5.29804 14.4257 5.18438 14.3909C5.07072 14.356 4.95889 14.3175 4.84706 14.2772C4.73524 14.2369 4.62341 14.191 4.51158 14.1452C4.50058 14.1397 4.49142 14.1379 4.48042 14.1306C4.37592 14.0847 4.2696 14.0371 4.1651 13.9857C4.05877 13.9344 3.95428 13.8812 3.85345 13.8262C3.74896 13.7694 3.6463 13.7107 3.54547 13.6502C3.44098 13.5879 3.33832 13.5238 3.23932 13.4578C3.14399 13.3936 3.04866 13.3276 2.95517 13.2579C2.86167 13.1883 2.77001 13.1168 2.68018 13.0434C2.58852 12.9683 2.49869 12.8913 2.4107 12.8106C2.32087 12.7281 2.23471 12.6475 2.15405 12.5668L2.15038 12.5631C2.06789 12.4806 1.98722 12.3981 1.91023 12.312C1.83323 12.2277 1.75624 12.1378 1.68107 12.048C1.60774 11.9582 1.53441 11.8647 1.46475 11.7693C1.39509 11.6759 1.32726 11.5787 1.2631 11.4815C1.1971 11.3844 1.13477 11.2854 1.07244 11.1845C1.01194 11.0837 0.951447 10.9792 0.894617 10.8729C0.837787 10.7684 0.784623 10.6639 0.731459 10.5557C0.678296 10.4476 0.628799 10.3376 0.582968 10.2294C0.535304 10.1176 0.489473 10.0039 0.447309 9.89029C0.405144 9.77663 0.366646 9.66113 0.329982 9.54381C0.293317 9.42831 0.262152 9.31282 0.23282 9.19549C0.203489 9.08 0.17599 8.96084 0.152158 8.83801C0.126493 8.71702 0.106327 8.59602 0.0879951 8.47503C0.0696628 8.35587 0.054997 8.23488 0.0421643 8.11022C0.0293317 7.98556 0.0201655 7.8609 0.0146659 7.73624C0.00366646 7.60241 0 7.47775 0 7.35309C0 7.10194 0.0128326 6.85262 0.0366646 6.60513C0.0494973 6.48047 0.0641631 6.35948 0.0824954 6.23849C0.100828 6.11933 0.120993 5.99834 0.146659 5.87551C0.168657 5.75818 0.196156 5.64269 0.225488 5.52536C0.254819 5.40987 0.287817 5.29437 0.322649 5.17888C0.35748 5.06522 0.395978 4.95156 0.436309 4.83973C0.47664 4.72974 0.520638 4.61974 0.566469 4.50975C0.570135 4.49875 0.571968 4.49508 0.577468 4.48409L0.582968 4.47492C0.628799 4.36676 0.678296 4.2586 0.729626 4.15227C0.780957 4.04594 0.835954 3.94145 0.892784 3.83695C0.949614 3.73063 1.01011 3.62797 1.06877 3.52897C1.12927 3.42814 1.1916 3.32915 1.2576 3.23199C1.32176 3.13666 1.38776 3.04133 1.45742 2.94784C1.52708 2.85434 1.59858 2.76268 1.67191 2.67285C1.74707 2.58119 1.82407 2.4932 1.90289 2.4052C1.98356 2.31537 2.06605 2.22921 2.14855 2.14672L2.15221 2.14305C2.23471 2.06055 2.31904 1.97989 2.40337 1.90106C2.48953 1.82223 2.57752 1.74707 2.66919 1.67191C2.76085 1.59675 2.85251 1.52525 2.946 1.45742L2.94967 1.45559C3.045 1.38592 3.14033 1.31809 3.23565 1.25576C3.33282 1.18977 3.43181 1.1256 3.53264 1.06511C3.63347 1.00461 3.73796 0.944114 3.84429 0.887284C3.94695 0.830454 4.05328 0.777291 4.16144 0.72596C4.2696 0.672797 4.37959 0.623299 4.48775 0.577468L4.49142 0.575635C4.60508 0.526138 4.71691 0.482141 4.82873 0.44181C4.94239 0.399645 5.05789 0.361147 5.17521 0.324482C5.29071 0.287817 5.40803 0.25482 5.52536 0.225488C5.64085 0.196156 5.76001 0.168658 5.88101 0.144825L5.87734 0.146659ZM7.76557 1.40609V3.30715H9.58047C9.46864 3.16416 9.34948 3.02117 9.22666 2.87634C9.08183 2.70768 8.92784 2.53719 8.76651 2.36854C8.60336 2.19805 8.43103 2.02572 8.25138 1.85156C8.09555 1.70674 7.93423 1.55641 7.76557 1.40609ZM7.76557 4.13577V6.93878H11.2157C11.1937 6.72246 11.157 6.50614 11.1057 6.28799C11.0507 6.05333 10.9811 5.81868 10.8931 5.58219C10.8032 5.34021 10.6969 5.09638 10.5741 4.85257C10.4549 4.61424 10.3174 4.37592 10.1653 4.1376H7.76557V4.13577ZM7.76557 7.7674V10.5704H10.2753C10.4219 10.3358 10.5521 10.1029 10.6657 9.86829C10.7831 9.6263 10.8821 9.38615 10.9627 9.14416C11.0416 8.90767 11.1039 8.66935 11.1497 8.43287C11.1919 8.21105 11.2194 7.99106 11.2322 7.76924H7.76557V7.7674ZM7.76557 11.3972V13.3331C7.94523 13.1828 8.11755 13.0306 8.28437 12.8785C8.47503 12.7043 8.65652 12.5301 8.82884 12.3578C9.00117 12.1837 9.16249 12.0113 9.31648 11.839C9.44664 11.6924 9.5713 11.5439 9.68863 11.3972H7.76557ZM6.93695 13.3331V11.3954H5.01572C5.13305 11.5439 5.25771 11.6905 5.38603 11.8372C5.53819 12.0095 5.69952 12.1818 5.87184 12.3541C6.04416 12.5283 6.22566 12.7006 6.41631 12.8748C6.5813 13.0306 6.75546 13.1809 6.93695 13.3331ZM6.93695 10.5686V7.7674H3.47031C3.48314 7.98923 3.51247 8.20921 3.55464 8.43103C3.60047 8.66935 3.6628 8.90584 3.74346 9.14416C3.82412 9.38615 3.92312 9.62813 4.04044 9.86829C4.1541 10.1029 4.28243 10.3376 4.42909 10.5704H6.93695V10.5686ZM6.93695 6.93878V4.13577H4.53542C4.38326 4.37409 4.2476 4.61241 4.1266 4.85073C4.00378 5.09455 3.89745 5.33837 3.80762 5.58036C3.72146 5.81685 3.64996 6.0515 3.59497 6.28615C3.54364 6.50431 3.50881 6.72063 3.48497 6.93695H6.93695V6.93878ZM6.93695 3.30898V1.40609C6.76829 1.55641 6.60697 1.70491 6.45298 1.8534C6.27149 2.02572 6.09916 2.19988 5.936 2.37037C5.77468 2.53903 5.62069 2.70952 5.47586 2.87817C5.35304 3.02117 5.23388 3.16599 5.12205 3.30898H6.93695Z" fill="black"/>
</svg>
